<?xml version="1.0" standalone="no"?>
<!DOCTYPE svg PUBLIC "-//W3C//DTD SVG 20010904//EN"
 "http://www.w3.org/TR/2001/REC-SVG-20010904/DTD/svg10.dtd">
<svg version="1.0" xmlns="http://www.w3.org/2000/svg"
 width="771.000000pt" height="912.000000pt" viewBox="0 0 771.000000 912.000000"
 preserveAspectRatio="xMidYMid meet">

<g transform="translate(0.000000,912.000000) scale(0.100000,-0.100000)"
fill="#000000" stroke="none">
<path d="M3576 8966 c-34 -17 -46 -18 -90 -9 -41 9 -57 8 -79 -4 -17 -8 -51
-13 -87 -12 -44 2 -65 -2 -78 -14 -16 -15 -19 -15 -30 3 -14 23 -37 27 -28 5
4 -12 -4 -15 -47 -15 -29 0 -72 5 -97 11 -39 9 -46 8 -58 -8 -12 -17 -15 -17
-41 -2 -23 13 -32 14 -52 4 -34 -17 -206 -28 -215 -13 -4 7 -13 3 -24 -12 -17
-22 -19 -23 -41 -8 -22 14 -26 13 -48 -8 -19 -17 -28 -21 -38 -12 -9 7 -13 7
-13 -1 0 -7 -22 -11 -60 -11 -33 0 -76 -6 -95 -14 -23 -10 -37 -11 -41 -4 -9
13 -63 2 -85 -18 -12 -11 -27 -14 -45 -10 -19 5 -30 2 -39 -10 -10 -14 -17
-15 -45 -6 -28 10 -37 9 -66 -9 -20 -12 -42 -18 -53 -14 -14 4 -19 1 -17 -12
1 -14 -8 -19 -43 -21 -25 -2 -54 -10 -65 -18 -11 -7 -42 -17 -68 -20 -27 -4
-54 -14 -64 -25 -9 -11 -21 -19 -26 -19 -5 0 -19 -11 -31 -26 -16 -19 -36 -27
-78 -33 -39 -5 -67 -16 -89 -34 -17 -15 -35 -27 -40 -27 -5 0 -11 -8 -14 -18
-4 -10 -43 -39 -89 -64 -45 -25 -99 -65 -120 -87 -31 -34 -41 -39 -55 -30 -27
17 -110 -37 -108 -70 1 -22 -3 -24 -39 -25 -34 -1 -41 -5 -43 -24 -2 -12 -13
-27 -25 -34 -12 -6 -30 -21 -40 -34 -9 -13 -26 -26 -37 -29 -13 -4 -20 -15
-20 -31 0 -19 -5 -24 -26 -24 -32 0 -114 -66 -114 -92 0 -22 -54 -78 -76 -78
-8 0 -18 -8 -21 -17 -4 -10 -19 -34 -35 -53 -15 -19 -28 -40 -28 -46 0 -6 -8
-20 -17 -32 -84 -99 -143 -192 -143 -225 0 -20 -4 -27 -16 -25 -20 3 -31 -16
-124 -202 -74 -148 -131 -311 -134 -377 0 -24 -7 -45 -13 -48 -7 -2 -13 -17
-13 -33 0 -15 -9 -68 -21 -118 -11 -49 -23 -102 -26 -119 -3 -16 -10 -36 -16
-43 -5 -6 -7 -25 -4 -41 4 -21 1 -34 -13 -46 -26 -23 -25 -33 5 -61 20 -18 23
-27 16 -46 -5 -13 -16 -22 -25 -22 -14 2 -15 -27 -13 -278 3 -233 6 -282 18
-292 10 -7 13 -21 9 -41 -3 -16 -2 -46 2 -65 4 -19 12 -66 17 -103 6 -41 17
-77 27 -88 12 -13 14 -23 7 -30 -13 -13 41 -213 85 -319 18 -41 56 -115 86
-165 30 -49 59 -107 66 -127 6 -21 16 -40 21 -43 5 -4 9 -15 9 -27 0 -11 8
-22 18 -25 20 -5 72 -78 72 -100 0 -7 6 -13 14 -13 7 0 16 -14 20 -32 3 -17
27 -54 52 -82 61 -69 67 -77 83 -108 8 -15 23 -28 34 -30 13 -2 24 -15 31 -35
7 -21 28 -43 58 -63 25 -17 53 -42 62 -55 9 -14 24 -25 34 -25 23 0 42 -19 42
-41 0 -18 75 -79 97 -79 8 0 25 -11 37 -24 13 -12 31 -26 40 -29 9 -4 16 -13
16 -22 0 -8 9 -15 20 -15 12 0 26 -12 35 -30 9 -16 21 -30 29 -30 7 0 21 -9
31 -20 10 -11 26 -20 37 -20 10 0 18 -7 18 -15 0 -9 10 -19 23 -24 12 -5 33
-21 46 -35 14 -14 30 -26 37 -26 7 0 42 -27 76 -59 35 -33 86 -75 113 -93 77
-51 83 -69 78 -255 -9 -362 -9 -423 5 -418 15 5 16 -14 2 -51 -7 -17 -12 -218
-14 -541 l-3 -513 -23 -25 c-13 -14 -32 -27 -42 -31 -21 -6 -88 -75 -127 -130
-28 -39 -61 -191 -61 -283 0 -52 6 -77 31 -128 17 -35 36 -63 42 -63 8 0 8 -3
-1 -8 -9 -6 -5 -19 18 -51 17 -23 35 -39 40 -36 6 4 14 -5 20 -19 6 -18 29
-34 75 -55 63 -29 65 -30 55 -57 -8 -20 -8 -29 0 -34 8 -5 7 -9 -3 -13 -15 -5
-30 -67 -16 -67 13 0 18 -42 6 -61 -9 -14 -9 -26 1 -51 9 -26 9 -35 -2 -47
-12 -13 -13 -38 -6 -136 5 -75 4 -127 -2 -138 -6 -13 -6 -23 3 -33 9 -11 9
-21 0 -40 -16 -35 -14 -90 4 -125 11 -20 13 -35 6 -47 -5 -9 -8 -52 -8 -94 1
-68 4 -77 18 -73 10 3 20 1 24 -5 3 -6 46 -10 101 -10 81 0 97 3 114 20 27 27
28 118 1 151 -16 20 -17 25 -4 34 12 9 16 40 18 146 2 126 1 135 -19 151 l-21
17 25 26 25 27 -27 22 c-34 26 -35 34 -7 38 19 3 22 10 25 66 2 35 -3 84 -11
110 -14 43 -13 48 3 60 16 12 16 14 0 23 -17 9 -17 12 -2 35 13 19 15 37 10
81 -7 64 9 93 51 93 29 0 60 15 93 45 14 13 36 25 49 27 35 5 64 50 74 116 12
76 13 153 3 175 -6 12 -4 17 8 17 12 0 16 10 16 45 0 36 -9 58 -44 112 -59 91
-151 178 -203 192 -49 13 -68 33 -56 58 5 10 9 64 9 120 -1 82 -4 106 -18 119
-15 15 -15 19 -3 28 18 14 20 59 17 364 -2 188 -5 232 -16 232 -18 0 -9 51 13
68 14 12 14 15 1 25 -20 16 -24 61 -6 76 12 10 13 19 5 39 -6 15 -7 43 -3 62
4 19 6 101 5 183 -2 81 1 147 6 147 13 0 53 -39 53 -50 0 -6 7 -10 15 -10 9 0
20 -11 25 -25 5 -14 17 -28 25 -32 9 -3 35 -33 57 -67 23 -33 50 -67 60 -74
10 -7 18 -21 18 -32 0 -10 16 -37 36 -61 60 -72 68 -95 70 -198 1 -51 5 -104
8 -116 3 -13 1 -36 -5 -52 -6 -15 -11 -43 -10 -62 0 -18 -4 -42 -10 -52 -8
-15 -6 -19 6 -19 13 0 14 -4 5 -20 -6 -12 -7 -27 -2 -38 5 -9 7 -59 6 -110 -2
-70 1 -96 13 -107 8 -8 11 -15 6 -15 -5 0 -6 -30 -3 -66 4 -49 10 -68 23 -76
14 -7 17 -17 12 -38 -7 -33 22 -70 56 -70 28 0 58 -16 96 -53 29 -27 35 -29
57 -19 22 10 28 8 50 -19 15 -17 26 -35 26 -40 0 -15 40 -10 47 7 5 13 9 12
28 -6 15 -14 44 -24 91 -30 38 -5 102 -14 143 -20 58 -8 92 -8 159 4 62 11 91
12 105 4 24 -12 151 -18 168 -7 7 4 25 2 41 -3 20 -7 32 -7 43 2 10 9 19 9 37
-1 16 -9 107 -12 320 -13 279 -2 300 -1 315 17 13 14 25 17 54 12 32 -5 44 -1
84 27 75 52 124 130 136 214 14 94 19 225 11 241 -4 7 -4 54 -1 105 4 60 3 95
-3 99 -6 4 -8 19 -4 33 4 15 3 32 -1 39 -11 17 -12 126 -2 133 5 3 2 15 -6 27
-19 27 -19 37 1 37 10 0 12 5 7 13 -4 6 -8 56 -9 110 l-2 99 -70 58 c-38 33
-80 75 -92 94 -12 20 -27 35 -33 33 -6 -1 -13 8 -15 21 -2 14 -10 22 -22 22
-23 0 -37 20 -20 30 8 5 0 20 -28 51 -23 25 -43 58 -47 77 -3 19 -16 44 -28
56 -14 14 -21 31 -19 48 3 28 -46 135 -72 157 -9 7 -13 17 -11 22 9 14 -18 49
-38 49 -10 0 -35 9 -55 20 -20 11 -57 29 -82 40 -40 18 -61 29 -120 62 -8 4
-50 26 -93 48 -42 22 -102 63 -132 90 -30 28 -64 50 -74 50 -10 0 -24 7 -32
16 -7 8 -26 22 -43 31 -38 19 -96 73 -96 89 0 7 -10 9 -26 6 -25 -5 -26 -3
-22 32 5 47 -16 49 -31 3 -7 -19 -23 -49 -36 -67 -14 -19 -25 -44 -25 -57 0
-18 -6 -23 -24 -23 -20 0 -25 -6 -30 -37 -13 -71 -17 -75 -88 -87 -3 -1 -26
-18 -49 -39 -59 -51 -101 -61 -264 -61 -138 0 -142 0 -262 41 -181 60 -305
144 -328 223 -4 14 -23 55 -41 91 -20 39 -34 81 -34 103 0 20 -4 36 -9 36 -18
0 -22 34 -6 46 10 8 12 14 6 19 -6 3 -11 17 -11 30 0 22 -3 24 -32 18 -18 -3
-42 -10 -52 -16 -11 -5 -81 -11 -155 -12 -122 -2 -143 0 -200 21 -35 13 -70
24 -78 24 -8 0 -44 14 -78 30 -76 36 -115 84 -173 215 -61 138 -85 233 -84
346 0 158 34 247 133 354 81 86 158 136 262 170 74 24 98 27 169 23 136 -7
215 -52 313 -179 72 -92 165 -125 195 -68 13 24 -19 102 -69 163 -17 21 -31
45 -31 52 0 7 -25 27 -55 44 -30 17 -74 47 -97 67 -48 40 -95 63 -114 56 -7
-2 -24 3 -38 12 -20 13 -38 16 -78 11 -52 -7 -70 -8 -137 -6 -19 0 -39 -4 -45
-10 -5 -5 -17 -10 -25 -10 -23 0 -138 -49 -195 -82 -60 -36 -156 -129 -156
-152 0 -8 -4 -17 -9 -21 -10 -5 -156 89 -199 128 -30 28 -102 158 -102 185 0
11 -8 28 -17 38 -10 10 -18 20 -19 23 0 3 -5 15 -10 26 -11 26 -12 374 0 400
5 11 11 29 13 39 2 11 8 25 14 33 6 7 9 13 6 13 -9 0 22 82 37 100 8 8 17 30
21 48 5 24 31 54 108 122 55 50 106 90 111 90 6 0 33 -16 60 -35 26 -19 71
-42 100 -51 28 -9 56 -20 61 -25 14 -11 92 -30 135 -34 19 -1 61 -8 93 -15 65
-14 176 -4 260 25 86 29 177 74 177 87 0 8 13 19 29 25 16 6 37 23 47 38 23
36 35 122 18 136 -18 15 -59 6 -95 -21 -17 -14 -34 -25 -38 -25 -15 -1 -76
-39 -90 -57 -9 -10 -29 -21 -45 -24 -16 -3 -36 -9 -45 -13 -9 -4 -40 -9 -70
-10 -65 -3 -85 -7 -108 -19 -12 -7 -20 -6 -28 3 -5 7 -37 16 -70 19 -111 12
-119 14 -130 30 -7 9 -17 16 -24 16 -6 0 -11 4 -11 8 0 4 -15 9 -33 10 -19 2
-39 11 -49 25 -10 12 -18 18 -18 13 0 -15 -60 46 -60 61 0 7 -4 13 -8 13 -4 0
-22 19 -40 43 -30 38 -33 46 -27 90 4 29 3 47 -3 47 -17 0 -35 133 -23 175 6
24 7 44 1 55 -6 12 -4 34 6 66 20 62 23 74 23 77 0 17 46 126 60 142 10 11 25
34 34 50 8 17 24 39 36 49 12 11 21 25 21 33 0 15 80 106 88 99 2 -3 9 -1 16
4 57 47 81 60 146 85 41 15 92 39 114 53 21 15 53 27 70 28 17 0 65 4 107 8
59 6 79 4 85 -6 5 -7 9 -51 9 -99 0 -89 7 -108 118 -314 21 -38 186 -182 239
-208 97 -47 192 -77 253 -79 54 -2 66 1 123 37 35 21 65 42 67 46 3 3 -4 18
-15 32 -18 22 -28 25 -114 29 -52 2 -100 9 -107 15 -8 6 -18 12 -24 12 -5 1
-25 6 -42 12 -18 6 -37 8 -43 4 -6 -4 -9 -1 -8 6 2 7 -24 23 -60 36 -37 15
-67 34 -73 46 -6 12 -21 33 -34 47 -20 23 -60 86 -93 146 -7 13 -18 24 -25 24
-8 0 -8 3 0 11 8 8 7 28 -3 72 -20 83 -3 238 34 317 14 30 25 58 24 62 -1 4
10 15 26 24 15 9 52 34 84 55 31 21 78 47 105 57 26 11 84 34 128 53 78 32 84
33 253 37 122 3 176 1 186 -7 11 -10 16 -8 24 5 8 15 14 16 38 7 16 -6 49 -14
74 -18 24 -3 79 -22 121 -40 42 -19 91 -38 109 -41 26 -6 45 -24 93 -88 33
-45 69 -100 79 -124 54 -120 63 -320 18 -400 -13 -23 -27 -42 -32 -42 -4 0 -7
-3 -6 -7 4 -12 -23 -73 -32 -73 -4 0 -10 -8 -12 -18 -3 -10 -31 -35 -62 -56
-58 -39 -62 -45 -46 -76 7 -13 6 -21 -5 -30 -18 -15 -19 -40 -2 -63 10 -14 18
-15 46 -7 19 5 46 21 60 34 14 14 32 26 40 28 8 2 28 18 45 37 17 18 48 50 69
70 27 26 39 48 43 76 4 22 12 45 19 50 19 16 35 52 35 79 0 13 8 38 17 54 15
26 16 37 6 74 -8 29 -8 45 -1 49 6 4 7 23 3 50 -4 24 -9 60 -11 80 -2 20 -13
58 -23 83 -11 25 -21 63 -22 85 -3 41 -21 71 -57 90 -12 6 -22 17 -22 23 0 6
-20 34 -44 62 l-44 52 86 -2 c48 -1 131 0 186 4 l98 5 13 31 c8 17 10 32 7 34
-4 1 -7 100 -6 220 1 210 0 218 -20 232 -19 14 -25 14 -60 -4z m190 -6021 c10
-8 35 -15 55 -15 50 0 105 -42 164 -125 42 -60 49 -76 54 -134 4 -36 11 -73
16 -81 5 -8 10 -46 11 -85 1 -60 -3 -81 -32 -146 -19 -42 -34 -81 -34 -87 0
-6 -10 -16 -22 -23 -13 -6 -39 -26 -58 -44 -27 -26 -55 -39 -117 -54 -91 -23
-173 -27 -191 -9 -9 9 -15 9 -24 0 -19 -19 -51 -14 -89 14 -19 14 -53 34 -75
44 -23 10 -55 36 -70 57 -16 21 -38 46 -49 55 -20 18 -20 18 -1 33 11 8 14 15
7 15 -6 0 -23 11 -36 25 -23 22 -25 31 -25 123 0 85 4 108 25 154 23 51 28 55
53 50 26 -5 26 -4 10 15 -24 26 -24 27 18 73 23 25 45 40 59 40 17 0 25 7 27
22 2 16 20 29 73 51 106 45 215 59 251 32z m-1921 -1305 c10 -11 26 -20 35
-20 25 0 70 -38 70 -60 0 -9 7 -24 17 -31 22 -19 43 -72 43 -109 0 -35 -25
-90 -41 -90 -5 0 -17 -16 -25 -35 -24 -58 -102 -131 -154 -145 -25 -7 -50 -16
-57 -22 -8 -7 -34 -3 -80 13 -88 29 -137 75 -148 139 -4 25 -12 51 -17 58 -15
18 -4 151 15 189 9 17 26 34 36 38 11 3 21 15 23 26 8 55 242 95 283 49z"/>
<path d="M3783 2696 c-55 -46 -116 -106 -136 -133 -19 -26 -63 -75 -97 -108
-68 -67 -85 -93 -99 -156 -16 -71 2 -78 60 -24 26 25 52 45 56 45 14 1 125
113 183 184 30 38 81 95 112 127 31 33 60 68 63 79 7 21 -17 70 -33 70 -5 0
-53 -38 -109 -84z"/>
<path d="M5615 6961 c-81 -20 -111 -45 -151 -127 -25 -50 -26 -61 -17 -97 8
-29 8 -45 0 -58 -8 -13 -5 -29 12 -70 29 -68 38 -79 66 -79 12 0 29 -7 36 -17
35 -42 144 -57 189 -26 13 9 37 17 54 17 23 1 34 8 46 30 8 16 22 37 31 46 16
17 42 109 54 193 7 43 5 49 -13 54 -16 4 -22 15 -24 42 -3 34 -7 38 -78 73
-83 42 -103 43 -205 19z"/>
<path d="M2870 6885 c-155 -47 -226 -82 -310 -154 -69 -59 -165 -172 -194
-231 -7 -14 -23 -55 -36 -92 l-23 -66 34 -76 c19 -42 39 -76 44 -76 28 0 73
57 83 105 19 91 66 177 143 264 98 110 202 166 358 193 93 17 105 17 121 3 9
-8 32 -15 51 -15 29 0 44 10 99 65 62 62 67 74 38 79 -7 1 -29 7 -48 13 -19 6
-84 14 -145 16 -103 5 -117 3 -215 -28z"/>
<path d="M2520 4981 c-120 -32 -162 -54 -218 -109 -44 -44 -82 -116 -82 -157
0 -12 -7 -28 -15 -35 -9 -8 -13 -20 -9 -29 3 -9 9 -43 13 -76 5 -52 9 -60 28
-63 50 -7 84 39 114 157 13 55 54 95 134 132 58 27 84 34 172 46 55 7 193 -35
251 -77 23 -16 44 -30 47 -30 7 0 6 107 -1 152 -5 29 -12 38 -33 43 -14 3 -44
18 -65 33 -36 25 -48 27 -155 29 -86 2 -133 -2 -181 -16z"/>
</g>
</svg>
